<svg width="468" height="296" viewBox="0 0 468 296" fill="none" xmlns="http://www.w3.org/2000/svg">
<path d="M6 294.822C6 294.212 18.91 264.192 34.33 228.942L41.77 211.942H51.06H60.34L78.53 253.442L96.71 294.942L87.68 295.232C82.71 295.392 78.17 295.332 77.58 295.102C76.98 294.862 75.15 291.252 73.5 287.062L70.5 279.452L55.92 279.442C47.9 279.442 41.08 279.192 40.78 278.882C40.47 278.582 41.46 275.092 42.98 271.132L45.74 263.942L54.69 263.442L63.65 262.942L57.66 248.692C54.37 240.852 51.33 234.442 50.92 234.442C50.21 234.442 41.08 255.442 29.94 282.692L24.73 295.442H15.36C10.21 295.442 6 295.162 6 294.822ZM107.63 294.662C107.34 294.192 107.25 275.382 107.42 252.872L107.74 211.942L116.37 211.652L125 211.363L125.14 238.152C125.22 252.882 125.28 271.692 125.27 279.942L125.26 294.942L116.71 295.232C112.01 295.392 107.93 295.132 107.63 294.662ZM348.36 294.402C336.78 292.112 325.37 282.732 319.8 270.942C316.69 264.342 316.5 263.312 316.5 252.942C316.5 242.712 316.72 241.483 319.6 235.393C325 224.013 332.42 217.343 344.06 213.423C357.58 208.863 375.63 212.302 384.1 221.042L387.42 224.472L384.77 227.122L382.12 229.772L378.81 227.252C372.59 222.512 366.72 220.163 359.93 219.673C347.58 218.783 336.98 223.842 330.26 233.822C326.07 240.052 324.67 245.263 324.78 254.173C324.9 263.683 328.36 271.642 335.16 278.002C342.35 284.722 347.78 286.862 357.5 286.822C366.77 286.772 372.53 284.662 378.76 279.042L382.68 275.492L384.84 277.973C387.89 281.483 387.58 282.692 382.75 286.142C371.44 294.222 360.59 296.822 348.36 294.402ZM244 271.882V249.442H271.5H299V253.442V257.442H275.47H251.95L252.22 271.692L252.5 285.942L277.75 286.212L303 286.473V289.962V293.442L276.25 293.552C261.54 293.622 248.26 293.812 246.75 293.992L244 294.322V271.882ZM192 256.972V220.502L178.75 220.222L165.5 219.942V216.192C165.5 214.132 165.84 212.442 166.25 212.442C166.66 212.442 180.72 212.442 197.5 212.442H228V216.442V220.442H214.5C204.41 220.442 200.98 220.762 200.93 221.692C200.54 228.302 200.41 236.182 200.22 262.692L200 293.442H196H192V256.972ZM403 252.942V212.442H407.5H412V231.382C412 242.932 412.39 250.562 413 250.942C413.55 251.282 414 252.662 414 254.002C414 255.342 413.55 256.442 413 256.442C412.37 256.442 412 263.272 412 274.942V293.442H407.5H403V252.942ZM460 275.442V257.442L441.75 257.422C431.71 257.422 423 257.082 422.4 256.672C421.09 255.802 419 252.012 419 250.512C419 249.792 425.66 249.442 439.5 249.442H460V230.942V212.442H464H468V252.942V293.442H464H460V275.442ZM244 235.552V230.652L248.05 230.262C250.28 230.052 252.31 230.083 252.55 230.333C252.8 230.573 253 232.953 253 235.613V240.442H248.5H244V235.552ZM244.19 216.242L244.5 212.032L270.23 211.622C284.38 211.392 297.44 211.493 299.25 211.833C302.42 212.423 302.54 212.612 302.17 216.442L301.79 220.442H272.84H243.89L244.19 216.242ZM59 164.812C42.64 162.742 29.02 158.742 18.38 152.872C11.24 148.932 0 140.672 0 139.372C0 138.882 2.54 134.982 5.63 130.712C8.73 126.432 12.65 121.032 14.33 118.692C16.01 116.352 17.71 114.442 18.1 114.442C18.49 114.442 20.72 116.042 23.05 117.982C35.38 128.282 53.42 134.442 71.28 134.442C85.5 134.442 93.42 130.753 96.01 122.923C98.68 114.833 93.9 107.382 83.58 103.542C80.33 102.332 72 99.9925 65.08 98.3425C36.9 91.6125 28.85 88.3025 19.92 79.7925C13.16 73.3325 9.52 65.9525 7.87 55.3425C4.66 34.6125 15.42 14.6325 34.5 5.89248C45.33 0.942485 50.83 -0.0575148 67 0.00248518C83.39 0.0724852 93.84 2.08249 105.71 7.46249C113.43 10.9625 125 18.2325 125 19.5825C125 20.0725 121.51 26.3025 117.26 33.4025L109.51 46.3325L106.51 44.3025C100.44 40.2225 86.78 34.2925 78.82 32.2825C68.7 29.7225 56.56 30.0325 50.49 33.0025C42.76 36.7825 39.84 45.3825 43.97 52.1525C46.79 56.7925 53.77 59.8925 71.74 64.5125C92.3 69.7925 99.05 72.0025 107.33 76.1325C122.74 83.8325 131 97.7225 131 115.942C131 139.562 117.5 156.302 93.5 162.442C85.98 164.362 66.2 165.722 59 164.812ZM143 161.962C143 161.182 149.01 147.012 165.7 108.442C173.92 89.4625 187.58 57.8625 196.07 38.2125L211.5 2.48248L225.5 2.33249C233.2 2.25249 240.75 2.1125 242.27 2.0125C243.79 1.9225 245.41 2.09248 245.86 2.39248C246.66 2.93248 255.06 21.8425 270.31 57.4425C274.43 67.0625 284.43 90.2425 292.52 108.942C300.61 127.642 308.68 146.322 310.47 150.442C312.25 154.562 314.03 158.952 314.42 160.192L315.13 162.442H296.74H278.35L272.01 146.952L265.66 131.472L236.49 131.202L207.31 130.942L212.9 116.212L218.5 101.472L235.75 101.462C245.24 101.452 253 101.272 253 101.062C253 100.592 228.97 43.0725 228.62 42.7325C228.49 42.5925 226.75 46.4125 224.77 51.2125C219.32 64.3825 191.51 132.012 184.99 147.942L179.26 161.942L161.13 162.212C151.16 162.362 143 162.252 143 161.962ZM351.74 126.192C324.32 58.0025 303 4.29249 303 3.36249C303 2.83249 310.8 2.44249 321.37 2.44249H339.73L346.5 20.1925C350.21 29.9525 356.52 46.4925 360.5 56.9425C364.49 67.3925 371.05 84.6025 375.07 95.1925C379.1 105.782 382.66 114.442 382.98 114.442C383.64 114.442 394.43 86.9725 413.32 37.2225L426.5 2.49249L442 2.38249C450.53 2.33249 458.74 2.19249 460.25 2.08249C461.76 1.96249 463 2.26249 463 2.74249C463 3.21249 457.67 16.7325 451.15 32.7725C444.63 48.8125 430.14 84.5525 418.95 112.192L398.61 162.442H382.47H366.32L351.74 126.192Z" fill="#F5F5F5"/>
</svg>
